<?xml version="1.0" encoding="UTF-8" standalone="no"?>
<svg
   width="111"
   height="56"
   viewBox="0 0 111 56"
   fill="none"
   version="1.1"
   id="svg2"
   sodipodi:docname="logo-white-49d6467c81954499645cb81d6c5d21721be63a93479a4f9ac46a27717a30fd14.svg"
   inkscape:version="1.3.2 (091e20e, 2023-11-25, custom)"
   xmlns:inkscape="http://www.inkscape.org/namespaces/inkscape"
   xmlns:sodipodi="http://sodipodi.sourceforge.net/DTD/sodipodi-0.dtd"
   xmlns="http://www.w3.org/2000/svg"
   xmlns:svg="http://www.w3.org/2000/svg">
  <defs
     id="defs2" />
  <sodipodi:namedview
     id="namedview2"
     pagecolor="#ffffff"
     bordercolor="#000000"
     borderopacity="0.25"
     inkscape:showpageshadow="2"
     inkscape:pageopacity="0.0"
     inkscape:pagecheckerboard="0"
     inkscape:deskcolor="#d1d1d1"
     inkscape:zoom="9.7567568"
     inkscape:cx="55.5"
     inkscape:cy="28.031856"
     inkscape:window-width="1600"
     inkscape:window-height="829"
     inkscape:window-x="-8"
     inkscape:window-y="-8"
     inkscape:window-maximized="1"
     inkscape:current-layer="svg2" />
  <path
     fill-rule="evenodd"
     clip-rule="evenodd"
     d="M26.923 15.3372C30.2742 18.278 32.3931 22.5912 32.3931 27.4085C32.3931 36.0936 25.1375 43.2255 16.3211 43.2255C7.29732 43.2255 0 36.1342 0 27.4085C0 18.4787 7.25578 11.3468 16.3211 11.3468C20.1443 11.3468 23.6614 12.6832 26.4243 14.9171L34.3032 4.139V2.69418C34.3032 2.69418 34.285 2.17882 34.672 1.75684C35.1934 1.18904 35.606 1.22028 35.6809 1.22028C35.7648 1.22028 35.8604 1.27566 35.8863 1.51062C35.9357 1.95434 35.7381 3.48282 35.2434 4.02516C35.0003 4.29201 31.6226 8.85089 28.3825 13.2865L26.923 15.3372ZM25.1352 17.9362L21.7123 22.7111C21.6436 22.8991 21.5792 23.1113 21.5792 23.2492C21.5792 23.545 21.4881 24.3336 21.2369 24.5311C20.9857 24.7282 21.2369 25.1232 21.2369 25.1232C21.2369 25.1232 24.1509 28.624 24.9913 31.5816C24.9913 31.5816 25.3873 32.4226 25.6837 32.8166C25.8146 32.9905 25.9837 34.2256 26.0835 35.4371C28.0055 33.2297 29.1716 30.3752 29.1716 27.2777C29.1716 23.5921 27.6189 20.2753 25.1352 17.9362ZM24.5969 17.4177C22.3571 15.5323 19.4649 14.3976 16.3125 14.3976C9.02654 14.3976 3.22146 20.0997 3.22146 27.2385C3.22146 33.9395 8.65978 39.4544 15.5589 39.8311C16.003 37.906 16.5252 35.1525 16.1891 34.9395C15.6451 34.5944 15.2495 33.1149 15.2001 32.9179C15.1507 32.7206 15.0023 32.1275 13.6176 31.5365C12.2329 30.945 10.8977 29.9069 10.5513 29.4137C10.2053 28.9211 10.4534 28.1281 10.5018 27.9293C10.5505 27.7312 11.1448 27.1787 11.3922 26.9323C11.6395 26.6858 11.3426 26.5642 11.3426 26.5642H10.4524C10.2579 26.5642 9.80954 26.2176 9.80954 26.2176L8.72966 25.4388L8.42483 25.3781L7.78193 25.9203C7.73379 25.9306 7.68751 25.9354 7.64335 25.9354C7.05459 25.9354 6.82938 25.0822 6.82938 25.0822C6.82938 25.0822 7.28768 24.5893 7.38658 24.3431C7.48548 24.0966 7.43599 23.6529 7.08962 23.3078C6.74367 22.9629 6.66609 22.5943 6.84258 22.3145C7.37702 21.467 9.12578 20.815 9.12578 20.815C9.12578 20.815 9.36706 20.6852 9.74364 20.6852C10.0707 20.6852 10.4994 20.7834 10.9596 21.15C11.9484 21.9387 12.4038 22.9933 13.3268 23.322C13.5549 23.4024 13.7422 23.4363 13.8991 23.4363C14.3789 23.4363 14.5755 23.1269 14.7743 22.9291C15.0382 22.666 16.8171 20.9582 16.8171 20.9582C16.8171 20.9582 17.3011 20.5942 17.8911 20.5942C18.0548 20.5942 18.2267 20.6221 18.3985 20.6936C19.1633 21.013 20.4919 21.7598 21.0804 22.2248L24.5969 17.4177Z"
     fill="#5E72F3"
     id="path1"
     style="fill:#ffffff" />
  <path
     fill-rule="evenodd"
     clip-rule="evenodd"
     d="M51.5867 35.2997V20.6173H48.366V26.4733H41.7551V20.6173H38.6191V35.2997H41.7551V29.1891H48.366V35.2997H51.5867ZM60.3665 20.614C55.8636 20.614 52.7677 23.4044 52.7677 27.9815C52.7677 32.5585 55.8636 35.3489 60.3665 35.3489C64.8695 35.3489 67.9653 32.5585 67.9653 27.9815C67.9653 23.4044 64.8695 20.614 60.3665 20.614ZM64.8084 27.9912C64.8084 30.5283 63.0576 32.4019 60.3822 32.4019C57.7658 32.4019 55.956 30.5478 55.956 27.9912C55.956 25.5126 57.7658 23.561 60.3822 23.561C63.0576 23.561 64.8084 25.4931 64.8084 27.9912ZM69.2157 20.6173V35.3846H79.3015L79.2841 32.2444H72.3516V20.6173H69.2157ZM91.252 32.2444H83.8783V29.1891H90.4892V26.3884H83.8783V23.6726H91.6799L90.9403 20.6173H80.7424V35.2997H91.252V32.2444ZM98.5409 35.2997V20.6173H92.7678L93.52 23.6726H94.8964V35.2997H98.5409ZM110.931 26.0223C111.129 23.0371 108.872 20.6173 105.881 20.6173H105.145C102.295 20.6173 99.984 22.9323 99.984 25.7847V26.049C99.984 28.6269 102.07 30.7167 104.647 30.7167H105.058L101.947 35.3846H105.637L109.952 29.2119C110.42 28.5431 110.843 27.3392 110.897 26.5289L110.931 26.0223ZM105.44 27.9815C106.692 27.9815 107.708 26.9918 107.708 25.7712C107.708 24.5505 106.692 23.561 105.44 23.561C104.187 23.561 103.171 24.5505 103.171 25.7712C103.171 26.9918 104.187 27.9815 105.44 27.9815Z"
     fill="#141F33"
     id="path2"
     style="fill:#ffffff" />
</svg>
